<svg width="239" height="74" viewBox="0 0 239 74" fill="none" xmlns="http://www.w3.org/2000/svg">
<path d="M63.9739 18.7786V44.9078C63.9739 55.2784 55.5339 63.6863 45.1237 63.6863H43.217L33.4805 73.3795C33.0992 73.7594 32.5717 74 31.987 74C31.4467 74 30.9574 73.8037 30.5824 73.4745L30.4172 73.3099L30.4108 73.3036L20.7569 63.6863H18.8439C8.44003 63.6863 0 55.2784 0 44.9078V18.7786C0 8.40794 8.44003 0 18.8503 0H45.1237C55.5339 0 63.9739 8.40794 63.9739 18.7786Z" fill="#FFD666"/>
<path d="M14.895 36.197C13.0392 36.197 11.9814 38.3036 13.0582 39.8247C17.2449 45.7501 24.1677 49.6133 31.99 49.6133C39.8123 49.6133 46.7289 45.7437 50.9155 39.8247C51.9923 38.3036 50.9345 36.197 49.0787 36.197H14.895Z" fill="white"/>
<path d="M25.764 27.2298H14.5658V21.6036C14.5658 18.4977 17.074 15.9774 20.1649 15.9774C23.2558 15.9774 25.764 18.4977 25.764 21.6036V27.2298Z" fill="white"/>
<path d="M49.4148 27.2298H38.2166V21.6036C38.2166 18.4977 40.7248 15.9774 43.8157 15.9774C46.9066 15.9774 49.4148 18.4977 49.4148 21.6036V27.2298Z" fill="white"/>
<g filter="url(#filter0_d)">
<path fill-rule="evenodd" clip-rule="evenodd" d="M98.0052 21.2531C95.6852 21.2531 92.9317 21.745 89.9233 25.2329V15.4717C89.9233 13.0059 87.9219 11 85.4616 11C83.0014 11 81 13.0059 81 15.4717V47.3042C81 49.77 83.0014 51.7759 85.4616 51.7759C87.9219 51.7759 89.9233 49.77 89.9233 47.3042V34.9494C89.9233 31.3975 91.6059 29.4364 94.6717 29.4364C97.6738 29.4364 99.2545 31.34 99.2545 34.9494V47.3042C99.2545 49.77 101.256 51.7759 103.716 51.7759C106.176 51.7759 108.178 49.77 108.178 47.3042V32.3558C108.171 25.4054 104.373 21.2531 98.0052 21.2531ZM124.724 20.5214C121.091 20.5214 118.21 20.9941 115.386 22.0545C113.92 22.6039 112.938 24.0221 112.938 25.5808C112.938 27.6634 114.589 29.2924 116.699 29.2924C117.132 29.2924 117.496 29.2285 117.993 29.0624C119.707 28.5258 121.518 28.2703 123.538 28.2703C128.331 28.2703 129.351 30.9214 129.364 33.1636C127.7 32.6206 125.603 32.1224 122.678 32.1224C115.055 32.1224 110.682 35.6167 110.682 41.7174V41.826C110.682 47.3391 114.812 51.0442 120.957 51.0442C124.418 51.0442 127.19 49.9902 129.402 47.831C129.778 49.4088 131.289 50.8334 133.609 50.8334C136.05 50.8334 137.962 48.9425 137.962 46.5278V33.3489C137.962 29.2029 136.878 26.0088 134.73 23.8624C132.512 21.6457 129.147 20.5214 124.724 20.5214ZM123.43 44.6369C120.899 44.6369 119.331 43.4359 119.331 41.5002V41.3916C119.331 39.0855 121.256 37.7695 124.615 37.7695C126.336 37.7695 128.051 38.1081 129.472 38.7214V39.9415C129.472 42.7012 126.986 44.6369 123.43 44.6369ZM148.841 24.5779C151.148 21.8501 153.991 20.5214 157.509 20.5214C164.22 20.5214 171.009 25.7789 171.009 35.8339V35.9425C171.009 40.574 169.587 44.4963 166.904 47.2943C164.45 49.856 161.116 51.2614 157.509 51.2614C154.035 51.2614 151.275 50.0732 148.885 47.5435V55.2093C148.885 57.6752 146.884 59.6811 144.424 59.6811C141.963 59.6811 139.962 57.6752 139.962 55.2093V25.2103C139.962 22.7445 141.963 20.7386 144.424 20.7386C146.673 20.7386 148.535 22.4123 148.841 24.5779ZM162.092 35.8339C162.092 31.4963 159.217 28.2192 155.406 28.2192C151.569 28.2192 148.777 31.4197 148.777 35.8339V35.9425C148.777 40.3568 151.562 43.5572 155.406 43.5572C159.281 43.5572 162.092 40.3568 162.092 35.9425V35.8339ZM190.555 20.5214C187.037 20.5214 184.194 21.8501 181.887 24.5779C181.581 22.4123 179.72 20.7386 177.47 20.7386C175.01 20.7386 173.009 22.7445 173.009 25.2103V55.2093C173.009 57.6752 175.01 59.6811 177.47 59.6811C179.93 59.6811 181.932 57.6752 181.932 55.2093V47.5435C184.322 50.0732 187.082 51.2614 190.555 51.2614C194.163 51.2614 197.496 49.856 199.95 47.2943C202.634 44.4963 204.055 40.574 204.055 35.9425V35.8339C204.055 25.7789 197.267 20.5214 190.555 20.5214ZM188.452 28.2192C192.264 28.2192 195.138 31.4963 195.138 35.8339V35.9425C195.138 40.3568 192.327 43.5572 188.452 43.5572C184.609 43.5572 181.823 40.3568 181.823 35.9425V35.8339C181.823 31.4197 184.615 28.2192 188.452 28.2192ZM226.324 23.9007C227.152 21.6904 228.631 20.5278 230.6 20.5278C232.978 20.5278 234.845 22.3484 234.839 24.6609C234.839 25.3317 234.622 26.3027 234.431 26.7499L224.367 50.974C221.837 57.113 219.198 59.2914 214.284 59.2914C212.55 59.2914 211.218 59.0614 209.688 58.512C208.636 58.1287 206.865 57.1322 206.865 54.7686C206.865 52.4432 208.694 51.057 210.459 51.057C211.16 51.057 211.581 51.1784 211.919 51.2934C212.614 51.5106 212.996 51.6 213.525 51.6C214.864 51.6 215.425 51.3828 216.1 50.086L216.304 49.6005L206.514 26.8649C206.291 26.3027 206.055 25.4339 206.055 24.827C206.055 22.374 207.948 20.5214 210.459 20.5214C212.531 20.5214 213.933 21.6074 214.736 23.8432L220.632 39.7307L226.324 23.9007Z" fill="url(#paint0_linear)"/>
</g>
<defs>
<filter id="filter0_d" x="77" y="11" width="161.839" height="56.6811" filterUnits="userSpaceOnUse" color-interpolation-filters="sRGB">
<feFlood flood-opacity="0" result="BackgroundImageFix"/>
<feColorMatrix in="SourceAlpha" type="matrix" values="0 0 0 0 0 0 0 0 0 0 0 0 0 0 0 0 0 0 127 0"/>
<feOffset dy="4"/>
<feGaussianBlur stdDeviation="2"/>
<feColorMatrix type="matrix" values="0 0 0 0 0 0 0 0 0 0 0 0 0 0 0 0 0 0 0.25 0"/>
<feBlend mode="normal" in2="BackgroundImageFix" result="effect1_dropShadow"/>
<feBlend mode="normal" in="SourceGraphic" in2="effect1_dropShadow" result="shape"/>
</filter>
<linearGradient id="paint0_linear" x1="234.839" y1="59.6811" x2="220.933" y2="-15.0413" gradientUnits="userSpaceOnUse">
<stop stop-color="#29B6D1"/>
<stop offset="1" stop-color="#00C7C7"/>
</linearGradient>
</defs>
</svg>
